<?xml version="1.0" encoding="UTF-8" standalone="no"?>
<!DOCTYPE svg PUBLIC "-//W3C//DTD SVG 1.1//EN"
 "http://www.w3.org/Graphics/SVG/1.1/DTD/svg11.dtd">
<!-- Generated by graphviz version 16.1.0 (0)
 -->
<!-- Title: system Pages: 1 -->
<svg width="575pt" height="885pt"
 viewBox="9.00 9.00 567.00 876.00" xmlns="http://www.w3.org/2000/svg" xmlns:xlink="http://www.w3.org/1999/xlink">
<g id="graph0" class="graph" transform="scale(1 1) rotate(0) translate(12.64 872.32)">
<title>system</title>
<polygon fill="#fcfcfb" stroke="none" points="-4,4 -4,-863.68 554,-863.68 554,4 -4,4"/>
<text xml:space="preserve" text-anchor="start" x="8" y="-844.33" font-family="DejaVu Sans" font-weight="bold" font-size="13.00" fill="#0b0b0b">Figure 1: one run, from task to verdict, and the boundary around it</text>
<text xml:space="preserve" text-anchor="start" x="8" y="-833.23" font-family="DejaVu Sans" font-size="11.00" fill="#52514e">no measurements in this figure; every box is a component of the system the rest of the paper measures</text>
<g id="clust1" class="cluster">
<title>cluster_a</title>
<path fill="#fcfcfb" stroke="#e1e0d9" d="M20,-289.88C20,-289.88 479,-289.88 479,-289.88 485,-289.88 491,-295.88 491,-301.88 491,-301.88 491,-794.68 491,-794.68 491,-800.68 485,-806.68 479,-806.68 479,-806.68 20,-806.68 20,-806.68 14,-806.68 8,-800.68 8,-794.68 8,-794.68 8,-301.88 8,-301.88 8,-295.88 14,-289.88 20,-289.88"/>
<text xml:space="preserve" text-anchor="start" x="16" y="-792.28" font-family="DejaVu Sans" font-weight="bold" font-size="12.00" fill="#0b0b0b">a. the lifecycle of one run</text>
</g>
<g id="clust2" class="cluster">
<title>cluster_boundary</title>
<path fill="#fcfcfb" stroke="#d03b3b" stroke-dasharray="5,2" d="M20,-458.3C20,-458.3 306,-458.3 306,-458.3 312,-458.3 318,-464.3 318,-470.3 318,-470.3 318,-602.01 318,-602.01 318,-608.01 312,-614.01 306,-614.01 306,-614.01 20,-614.01 20,-614.01 14,-614.01 8,-608.01 8,-602.01 8,-602.01 8,-470.3 8,-470.3 8,-464.3 14,-458.3 20,-458.3"/>
<text xml:space="preserve" text-anchor="start" x="16" y="-600.56" font-family="DejaVu Sans" font-weight="bold" font-size="11.00" fill="#d03b3b">the boundary</text>
</g>
<g id="clust3" class="cluster">
<title>cluster_b</title>
<path fill="#fcfcfb" stroke="#e1e0d9" d="M239,-8C239,-8 530,-8 530,-8 536,-8 542,-14 542,-20 542,-20 542,-256.88 542,-256.88 542,-262.88 536,-268.88 530,-268.88 530,-268.88 239,-268.88 239,-268.88 233,-268.88 227,-262.88 227,-256.88 227,-256.88 227,-20 227,-20 227,-14 233,-8 239,-8"/>
<text xml:space="preserve" text-anchor="start" x="235" y="-254.48" font-family="DejaVu Sans" font-weight="bold" font-size="12.00" fill="#0b0b0b">b. how much of the machine the model may touch</text>
</g>
<!-- repo -->
<g id="node1" class="node">
<title>repo</title>
<path fill="#f2f4f7" stroke="#c3c2b7" d="M233.7,-781.43C233.7,-781.43 28.3,-781.43 28.3,-781.43 22.3,-781.43 16.3,-775.43 16.3,-769.43 16.3,-769.43 16.3,-747.47 16.3,-747.47 16.3,-741.47 22.3,-735.47 28.3,-735.47 28.3,-735.47 233.7,-735.47 233.7,-735.47 239.7,-735.47 245.7,-741.47 245.7,-747.47 245.7,-747.47 245.7,-769.43 245.7,-769.43 245.7,-775.43 239.7,-781.43 233.7,-781.43"/>
<text xml:space="preserve" text-anchor="start" x="26.38" y="-765.5" font-family="DejaVu Sans" font-weight="bold" font-size="11.00" fill="#0b0b0b">task repository</text>
<text xml:space="preserve" text-anchor="start" x="26.38" y="-754.5" font-family="DejaVu Sans" font-size="11.00" fill="#0b0b0b">starting tree, task text, the tests</text>
<text xml:space="preserve" text-anchor="start" x="26.38" y="-743.5" font-family="DejaVu Sans" font-size="11.00" fill="#0b0b0b">that ship with the tree, one issue per run</text>
</g>
<!-- runner -->
<g id="node2" class="node">
<title>runner</title>
<path fill="#f2f4f7" stroke="#c3c2b7" d="M233.7,-695.72C233.7,-695.72 28.3,-695.72 28.3,-695.72 22.3,-695.72 16.3,-689.72 16.3,-683.72 16.3,-683.72 16.3,-661.76 16.3,-661.76 16.3,-655.76 22.3,-649.76 28.3,-649.76 28.3,-649.76 233.7,-649.76 233.7,-649.76 239.7,-649.76 245.7,-655.76 245.7,-661.76 245.7,-661.76 245.7,-683.72 245.7,-683.72 245.7,-689.72 239.7,-695.72 233.7,-695.72"/>
<text xml:space="preserve" text-anchor="start" x="26.38" y="-679.79" font-family="DejaVu Sans" font-weight="bold" font-size="11.00" fill="#0b0b0b">runner</text>
<text xml:space="preserve" text-anchor="start" x="26.38" y="-668.79" font-family="DejaVu Sans" font-size="11.00" fill="#0b0b0b">freezes the limits, creates the machine,</text>
<text xml:space="preserve" text-anchor="start" x="26.38" y="-657.79" font-family="DejaVu Sans" font-size="11.00" fill="#0b0b0b">writes each run into the append&#45;only log</text>
</g>
<!-- repo&#45;&gt;runner -->
<g id="edge1" class="edge">
<title>repo&#45;&gt;runner</title>
<path fill="none" stroke="#52514e" d="M131,-735.02C131,-725.56 131,-714.4 131,-704.21"/>
<polygon fill="#52514e" stroke="#52514e" points="133.45,-704.46 131,-697.46 128.55,-704.46 133.45,-704.46"/>
<text xml:space="preserve" text-anchor="middle" x="221.75" y="-713.02" font-family="DejaVu Sans" font-size="11.00" fill="#52514e"> the task, and the tree it starts from</text>
</g>
<!-- executor -->
<g id="node6" class="node">
<title>executor</title>
<path fill="#eef4fb" stroke="#2a78d6" d="M295.71,-580.26C295.71,-580.26 30.29,-580.26 30.29,-580.26 24.29,-580.26 18.29,-574.26 18.29,-568.26 18.29,-568.26 18.29,-480.3 18.29,-480.3 18.29,-474.3 24.29,-468.3 30.29,-468.3 30.29,-468.3 295.71,-468.3 295.71,-468.3 301.71,-468.3 307.71,-474.3 307.71,-480.3 307.71,-480.3 307.71,-568.26 307.71,-568.26 307.71,-574.26 301.71,-580.26 295.71,-580.26"/>
<text xml:space="preserve" text-anchor="start" x="28.38" y="-564.33" font-family="DejaVu Sans" font-weight="bold" font-size="11.00" fill="#0b0b0b">executor virtual machine</text>
<text xml:space="preserve" text-anchor="start" x="28.38" y="-553.33" font-family="DejaVu Sans" font-size="11.00" fill="#0b0b0b">cloned for one task, destroyed when it ends;</text>
<text xml:space="preserve" text-anchor="start" x="28.38" y="-542.33" font-family="DejaVu Sans" font-size="11.00" fill="#0b0b0b">the model works here, alone and unwatched;</text>
<text xml:space="preserve" text-anchor="start" x="28.38" y="-531.33" font-family="DejaVu Sans" font-size="11.00" fill="#0b0b0b">no person approves a command</text>
<text xml:space="preserve" text-anchor="start" x="28.38" y="-520.33" font-family="DejaVu Sans" font-size="11.00" fill="#d03b3b">default&#45;deny firewall both ways. Out: the runner</text>
<text xml:space="preserve" text-anchor="start" x="28.38" y="-509.33" font-family="DejaVu Sans" font-size="11.00" fill="#d03b3b">host, DNS, DHCP. In: DHCP replies and ping. One Git</text>
<text xml:space="preserve" text-anchor="start" x="28.38" y="-498.33" font-family="DejaVu Sans" font-size="11.00" fill="#d03b3b">token scoped to the work organisation lives inside;</text>
<text xml:space="preserve" text-anchor="start" x="28.38" y="-487.33" font-family="DejaVu Sans" font-size="11.00" fill="#d03b3b">no provider key ever does. The tests, the verdict</text>
<text xml:space="preserve" text-anchor="start" x="28.38" y="-476.33" font-family="DejaVu Sans" font-size="11.00" fill="#d03b3b">and the log are outside.</text>
</g>
<!-- runner&#45;&gt;executor -->
<g id="edge2" class="edge">
<title>runner&#45;&gt;executor</title>
<path fill="none" stroke="#52514e" d="M135.86,-649.5C139.39,-633.32 144.37,-610.55 149.1,-588.92"/>
<polygon fill="#52514e" stroke="#52514e" points="151.47,-589.54 150.57,-582.17 146.68,-588.49 151.47,-589.54"/>
<text xml:space="preserve" text-anchor="middle" x="239.6" y="-627.31" font-family="DejaVu Sans" font-size="11.00" fill="#52514e"> clones the machine, freezes the limits</text>
</g>
<!-- endpoints -->
<g id="node3" class="node">
<title>endpoints</title>
<path fill="#f2f4f7" stroke="#c3c2b7" d="M210.2,-406.8C210.2,-406.8 19.8,-406.8 19.8,-406.8 13.8,-406.8 7.8,-400.8 7.8,-394.8 7.8,-394.8 7.8,-372.84 7.8,-372.84 7.8,-366.84 13.8,-360.84 19.8,-360.84 19.8,-360.84 210.2,-360.84 210.2,-360.84 216.2,-360.84 222.2,-366.84 222.2,-372.84 222.2,-372.84 222.2,-394.8 222.2,-394.8 222.2,-400.8 216.2,-406.8 210.2,-406.8"/>
<text xml:space="preserve" text-anchor="start" x="17.88" y="-390.87" font-family="DejaVu Sans" font-weight="bold" font-size="11.00" fill="#0b0b0b">model endpoints</text>
<text xml:space="preserve" text-anchor="start" x="17.88" y="-379.87" font-family="DejaVu Sans" font-size="11.00" fill="#0b0b0b">local server and two provider proxies,</text>
<text xml:space="preserve" text-anchor="start" x="17.88" y="-368.87" font-family="DejaVu Sans" font-size="11.00" fill="#0b0b0b">all on the runner host</text>
</g>
<!-- staging -->
<g id="node4" class="node">
<title>staging</title>
<path fill="#f2f4f7" stroke="#c3c2b7" d="M479.33,-406.8C479.33,-406.8 256.67,-406.8 256.67,-406.8 250.67,-406.8 244.67,-400.8 244.67,-394.8 244.67,-394.8 244.67,-372.84 244.67,-372.84 244.67,-366.84 250.67,-360.84 256.67,-360.84 256.67,-360.84 479.33,-360.84 479.33,-360.84 485.33,-360.84 491.33,-366.84 491.33,-372.84 491.33,-372.84 491.33,-394.8 491.33,-394.8 491.33,-400.8 485.33,-406.8 479.33,-406.8"/>
<text xml:space="preserve" text-anchor="start" x="254.75" y="-390.87" font-family="DejaVu Sans" font-weight="bold" font-size="11.00" fill="#0b0b0b">staging virtual machine</text>
<text xml:space="preserve" text-anchor="start" x="254.75" y="-379.87" font-family="DejaVu Sans" font-size="11.00" fill="#0b0b0b">runs the hidden acceptance tests; the</text>
<text xml:space="preserve" text-anchor="start" x="254.75" y="-368.87" font-family="DejaVu Sans" font-size="11.00" fill="#0b0b0b">model never sees them and never runs here</text>
</g>
<!-- verdict -->
<g id="node5" class="node">
<title>verdict</title>
<path fill="#f2f4f7" stroke="#c3c2b7" d="M435.83,-335.84C435.83,-335.84 300.17,-335.84 300.17,-335.84 294.17,-335.84 288.17,-329.84 288.17,-323.84 288.17,-323.84 288.17,-301.88 288.17,-301.88 288.17,-295.88 294.17,-289.88 300.17,-289.88 300.17,-289.88 435.83,-289.88 435.83,-289.88 441.83,-289.88 447.83,-295.88 447.83,-301.88 447.83,-301.88 447.83,-323.84 447.83,-323.84 447.83,-329.84 441.83,-335.84 435.83,-335.84"/>
<text xml:space="preserve" text-anchor="start" x="298.25" y="-319.91" font-family="DejaVu Sans" font-weight="bold" font-size="11.00" fill="#0b0b0b">verdict and run log</text>
<text xml:space="preserve" text-anchor="start" x="298.25" y="-308.91" font-family="DejaVu Sans" font-size="11.00" fill="#0b0b0b">checks passed, limits, calls,</text>
<text xml:space="preserve" text-anchor="start" x="298.25" y="-297.91" font-family="DejaVu Sans" font-size="11.00" fill="#0b0b0b">seconds, energy</text>
</g>
<!-- staging&#45;&gt;verdict -->
<g id="edge6" class="edge">
<title>staging&#45;&gt;verdict</title>
<path fill="none" stroke="#52514e" d="M368,-360.62C368,-355.45 368,-349.86 368,-344.4"/>
<polygon fill="#52514e" stroke="#52514e" points="370.45,-344.53 368,-337.53 365.55,-344.53 370.45,-344.53"/>
</g>
<!-- p1 -->
<g id="node7" class="node">
<title>p1</title>
<path fill="#f2f4f7" stroke="#c3c2b7" d="M442.58,-243.63C442.58,-243.63 293.42,-243.63 293.42,-243.63 287.42,-243.63 281.42,-237.63 281.42,-231.63 281.42,-231.63 281.42,-198.67 281.42,-198.67 281.42,-192.67 287.42,-186.67 293.42,-186.67 293.42,-186.67 442.58,-186.67 442.58,-186.67 448.58,-186.67 454.58,-192.67 454.58,-198.67 454.58,-198.67 454.58,-231.63 454.58,-231.63 454.58,-237.63 448.58,-243.63 442.58,-243.63"/>
<text xml:space="preserve" text-anchor="start" x="291.5" y="-227.7" font-family="DejaVu Sans" font-weight="bold" font-size="11.00" fill="#0b0b0b">a text protocol</text>
<text xml:space="preserve" text-anchor="start" x="291.5" y="-216.7" font-family="DejaVu Sans" font-size="11.00" fill="#0b0b0b">whole files in, whole files out,</text>
<text xml:space="preserve" text-anchor="start" x="291.5" y="-205.7" font-family="DejaVu Sans" font-size="11.00" fill="#0b0b0b">no tools</text>
<text xml:space="preserve" text-anchor="start" x="291.5" y="-194.7" font-family="DejaVu Sans" font-weight="bold" font-size="11.00" fill="#2a78d6">measured here</text>
</g>
<!-- verdict&#45;&gt;p1 -->
<!-- executor&#45;&gt;repo -->
<g id="edge4" class="edge">
<title>executor&#45;&gt;repo</title>
<path fill="none" stroke="#52514e" d="M308.06,-570.91C331.55,-587.2 347.12,-608.94 343,-637.76 337.39,-677.04 347.48,-696.91 318,-723.47 307.36,-733.06 282.42,-740.05 254.11,-745.11"/>
<polygon fill="#52514e" stroke="#52514e" points="254.02,-742.64 247.53,-746.23 254.84,-747.47 254.02,-742.64"/>
<text xml:space="preserve" text-anchor="start" x="341.64" y="-678.04" font-family="DejaVu Sans" font-size="11.00" fill="#52514e"> pushes its branch and uploads its own</text>
<text xml:space="preserve" text-anchor="start" x="341.64" y="-662.29" font-family="DejaVu Sans" font-size="11.00" fill="#52514e"> conversation, before it is destroyed</text>
</g>
<!-- executor&#45;&gt;endpoints -->
<g id="edge3" class="edge">
<title>executor&#45;&gt;endpoints</title>
<path fill="none" stroke="#52514e" d="M141.19,-460.37C135.74,-444.65 130.14,-428.5 125.53,-415.18"/>
<polygon fill="#52514e" stroke="#52514e" points="138.79,-460.92 143.4,-466.73 143.42,-459.31 138.79,-460.92"/>
<polygon fill="#52514e" stroke="#52514e" points="127.89,-414.53 123.28,-408.72 123.26,-416.13 127.89,-414.53"/>
<text xml:space="preserve" text-anchor="start" x="137.56" y="-439.85" font-family="DejaVu Sans" font-size="11.00" fill="#52514e"> one model call per turn,</text>
<text xml:space="preserve" text-anchor="start" x="137.56" y="-424.1" font-family="DejaVu Sans" font-size="11.00" fill="#52514e"> over the one allowed hop</text>
</g>
<!-- executor&#45;&gt;staging -->
<g id="edge5" class="edge">
<title>executor&#45;&gt;staging</title>
<path fill="none" stroke="#52514e" d="M250.46,-467.98C259.47,-462.08 268.45,-456.11 277,-450.3 295.03,-438.05 314.71,-423.99 331.13,-412.04"/>
<polygon fill="#52514e" stroke="#52514e" points="332.52,-414.06 336.73,-407.95 329.64,-410.1 332.52,-414.06"/>
<text xml:space="preserve" text-anchor="middle" x="394.34" y="-431.98" font-family="DejaVu Sans" font-size="11.00" fill="#52514e"> the branch the run delivered</text>
</g>
<!-- p2 -->
<g id="node8" class="node">
<title>p2</title>
<path fill="#f2f4f7" stroke="#c3c2b7" d="M439.58,-146.92C439.58,-146.92 296.42,-146.92 296.42,-146.92 290.42,-146.92 284.42,-140.92 284.42,-134.92 284.42,-134.92 284.42,-101.96 284.42,-101.96 284.42,-95.96 290.42,-89.96 296.42,-89.96 296.42,-89.96 439.58,-89.96 439.58,-89.96 445.58,-89.96 451.58,-95.96 451.58,-101.96 451.58,-101.96 451.58,-134.92 451.58,-134.92 451.58,-140.92 445.58,-146.92 439.58,-146.92"/>
<text xml:space="preserve" text-anchor="start" x="294.5" y="-130.99" font-family="DejaVu Sans" font-weight="bold" font-size="11.00" fill="#0b0b0b">an agent loop with a shell</text>
<text xml:space="preserve" text-anchor="start" x="294.5" y="-119.99" font-family="DejaVu Sans" font-size="11.00" fill="#0b0b0b">the same machine, shell and</text>
<text xml:space="preserve" text-anchor="start" x="294.5" y="-108.99" font-family="DejaVu Sans" font-size="11.00" fill="#0b0b0b">file tools</text>
<text xml:space="preserve" text-anchor="start" x="294.5" y="-97.99" font-family="DejaVu Sans" font-weight="bold" font-size="11.00" fill="#2a78d6">measured here</text>
</g>
<!-- p1&#45;&gt;p2 -->
<g id="edge7" class="edge">
<title>p1&#45;&gt;p2</title>
<path fill="none" stroke="#c3c2b7" d="M368,-186.25C368,-176.32 368,-165.02 368,-154.57"/>
<polygon fill="#c3c2b7" stroke="#c3c2b7" points="370.1,-154.66 368,-148.66 365.9,-154.66 370.1,-154.66"/>
<text xml:space="preserve" text-anchor="middle" x="423.5" y="-164.22" font-family="DejaVu Sans" font-size="11.00" fill="#52514e"> more of the machine</text>
</g>
<!-- p3 -->
<g id="node9" class="node">
<title>p3</title>
<path fill="#fcfcfb" stroke="#898781" stroke-dasharray="5,2" d="M447.08,-64.96C447.08,-64.96 288.92,-64.96 288.92,-64.96 282.92,-64.96 276.92,-58.96 276.92,-52.96 276.92,-52.96 276.92,-20 276.92,-20 276.92,-14 282.92,-8 288.92,-8 288.92,-8 447.08,-8 447.08,-8 453.08,-8 459.08,-14 459.08,-20 459.08,-20 459.08,-52.96 459.08,-52.96 459.08,-58.96 453.08,-64.96 447.08,-64.96"/>
<text xml:space="preserve" text-anchor="start" x="287" y="-49.03" font-family="DejaVu Sans" font-weight="bold" font-size="11.00" fill="#898781">a planning and reviewing role</text>
<text xml:space="preserve" text-anchor="start" x="287" y="-38.03" font-family="DejaVu Sans" font-size="11.00" fill="#898781">the whole repository, chooses</text>
<text xml:space="preserve" text-anchor="start" x="287" y="-27.03" font-family="DejaVu Sans" font-size="11.00" fill="#898781">its own work</text>
<text xml:space="preserve" text-anchor="start" x="287" y="-16.03" font-family="DejaVu Sans" font-weight="bold" font-size="11.00" fill="#898781">not measured here</text>
</g>
<!-- p2&#45;&gt;p3 -->
<g id="edge8" class="edge">
<title>p2&#45;&gt;p3</title>
<path fill="none" stroke="#c3c2b7" d="M368,-89.47C368,-84.09 368,-78.38 368,-72.79"/>
<polygon fill="#c3c2b7" stroke="#c3c2b7" points="370.1,-72.81 368,-66.81 365.9,-72.81 370.1,-72.81"/>
</g>
</g>
</svg>
